<svg width="34" height="14" fill="none" xmlns="http://www.w3.org/2000/svg"><path d="M20.67 5.988L17.06 0h-4.524l-.01.006 4.176 6.926-4.157 6.896h4.536l3.588-5.951.57-.945-.57-.944z" fill="#E9A668"/><path d="M26.933 5.988L23.323 0h-4.524l4.166 6.932-4.157 6.896h4.536l3.589-5.951.569-.945-.57-.944z" fill="#E2954D"/><path d="M33.196 5.988L29.586 0h-4.524l-.01.006 4.177 6.926-4.158 6.896h4.537l3.588-5.951.569-.945-.57-.944z" fill="#9EA7B7"/><path d="M14.975 6.932l-.569-.944L10.796 0H6.273l-.01.006 4.176 6.926-4.157 6.896h4.536l3.588-5.951.57-.945z" fill="#4BB276"/><path d="M8.713 6.932l-.57-.944L4.533 0H.01L0 .006l4.176 6.926-4.158 6.896h4.537l3.588-5.951.57-.945z" fill="#5FCE8D"/></svg>