<svg width="14" height="15" fill="none" xmlns="http://www.w3.org/2000/svg"><path opacity=".496" fill-rule="evenodd" clip-rule="evenodd" d="M8.33 12.692c.308 0 .562-.265.57-.578l.165-7.118a.577.577 0 00-.556-.594.57.57 0 00-.583.561l-.166 7.124c-.007.319.242.605.556.605h.014zm-2.685 0h.014c.314 0 .563-.306.556-.625l-.166-7.126a.579.579 0 00-.583-.572.57.57 0 00-.556.586l.166 7.142c.007.313.26.595.57.595zM5.372 1.978h3.256v-.824H5.372v.824zm8.628.66a.656.656 0 01-.651.659H.65a.655.655 0 01-.65-.66c0-.364.292-.659.651-.659h3.582V.495c0-.32.21-.495.524-.495h4.486c.314 0 .524.176.524.495v1.483h3.582c.36 0 .651.295.651.66zm-1.726 2.206l-.497 9.531a.655.655 0 01-.65.625H2.873a.655.655 0 01-.65-.625l-.497-9.53a.656.656 0 01.616-.694.654.654 0 01.685.624l.464 8.906h7.018l.464-8.906a.658.658 0 01.685-.624c.359.02.635.33.616.693z" fill="#3D4044"/></svg>