<svg width="14" height="15" fill="none" xmlns="http://www.w3.org/2000/svg"><path fill-rule="evenodd" clip-rule="evenodd" d="M.025 13.558l1.046-4.913c0-.123.06-.214.15-.305L8.727.68c.575-.67 2.135-1.116 3.229 0l1.376 1.405c.89.909.89 2.386 0 3.295l-7.506 7.66a.562.562 0 01-.27.152L.711 14.32c-.29.044-.836-.143-.687-.762zm12.471-9.031a1.142 1.142 0 000-1.618L11.12 1.504a1.108 1.108 0 00-1.586 0L2.686 8.493h.778c.328 0 .598.275.598.61v1.005h.985c.328 0 .598.275.598.61v.765l6.851-6.956zm-8.044 7.66v-.856h-.985c-.517.05-.598-.484-.598-.61V9.712h-.838l-.69 3.204 3.111-.73z" fill="#3D4044" opacity=".5"/></svg>